<?xml version="1.0" encoding="UTF-8"?>
<!DOCTYPE svg PUBLIC "-//W3C//DTD SVG 1.0//EN" "http://www.w3.org/TR/2001/REC-SVG-20010904/DTD/svg10.dtd">
<!-- Creator: CorelDRAW 2020 (64 Bit) -->
<svg xmlns="http://www.w3.org/2000/svg" xml:space="preserve" width="62.2679mm" height="36.9402mm" version="1.0" style="shape-rendering:geometricPrecision; text-rendering:geometricPrecision; image-rendering:optimizeQuality; fill-rule:evenodd; clip-rule:evenodd"
viewBox="0 0 5525.69 3278.1"
 xmlns:xlink="http://www.w3.org/1999/xlink"
 xmlns:xodm="http://www.corel.com/coreldraw/odm/2003">
 <defs>
  <style type="text/css">
   <![CDATA[
    .fil0 {fill:#373435}
   ]]>
  </style>
 </defs>
 <g id="Camada_x0020_1">
  <metadata id="CorelCorpID_0Corel-Layer"/>
  <g id="_1939915574304">
   <rect class="fil0" transform="matrix(0.844705 -0.288897 -0.152582 1.55585 2523.67 3022.86)" width="3439.72" height="187.83" rx="285.51" ry="285.51"/>
   <path class="fil0" d="M783.62 609.19c236,77.58 568.34,229.85 907.97,313.72 339.63,83.85 686.52,99.31 984.01,79.9 297.49,-19.41 545.51,-73.7 727.85,-146.94 182.34,-73.26 298.97,-165.48 385.85,-276.21 86.9,-110.76 144.04,-240.03 222.28,-342.4 78.24,-102.37 177.54,-177.83 273.52,-212.7 95.96,-34.9 188.57,-29.2 270.42,-4.26 81.89,24.91 153.01,69.08 195.29,124.62 42.27,55.55 55.68,122.51 103.53,156.64 22.51,16.09 52.71,24.88 80.24,33.85l0.03 0.02c35.07,7.3 74.15,12.8 115.11,15.33 92.88,5.75 195.27,-3.67 274.61,-13.64 79.33,-9.96 135.56,-20.47 167.02,-26.34 31.48,-5.88 38.19,-7.14 32.51,-5.54 -5.69,1.59 -23.74,6.03 -73.96,30.55 -50.2,24.54 -132.56,69.17 -210.14,106.27 -77.57,37.09 -150.35,66.64 -218.75,99.18 -38.26,18.19 -75.17,37.32 -108.82,55.81l-0.01 0.02c-3.65,3.46 -7.88,7.24 -12.98,11.63 -30.13,25.89 -90.21,72.66 -160.82,153.82 -70.58,81.16 -151.66,196.73 -205.91,321.01 -54.25,124.27 -81.69,257.24 -128.17,385.88 -46.48,128.63 -112.03,252.91 -293.37,408.66 -73.24,62.88 -165.35,130.89 -270.79,191.01l0.65 6.03c2.87,28.46 5.93,85.74 18.43,121.95 12.51,36.21 34.46,51.35 115.6,85.63 81.13,34.26 221.45,87.64 314.72,131.74 93.26,44.1 139.46,78.91 159.19,121.37 19.72,42.45 12.97,92.58 -2.46,132.11 -15.44,39.53 -39.54,68.47 -77.15,81.87 -37.6,13.42 -88.69,11.28 -119.59,4.67 -30.89,-6.61 -41.59,-17.66 -44.47,-38.95 -2.87,-21.27 2.09,-52.77 -4.21,-88.37 -6.29,-35.58 -23.84,-75.23 -53.18,-112.04 -29.36,-36.77 -70.5,-70.66 -143.68,-105.32 -73.16,-34.65 -178.36,-70.06 -241.35,-101.73 -62.98,-31.67 -83.76,-59.62 -97.42,-101.71 -4.63,-14.45 -8.53,-30.63 -11.75,-46.75 -92.45,37 -191.16,64.82 -293.47,77.28 1.8,25.34 4.88,50.14 9.98,69.11 12.62,46.9 37.7,58.3 136.82,75.23 99.14,16.92 272.35,39.37 385.55,64.35 113.22,24.98 166.44,52.49 193.38,97.25 26.93,44.74 27.6,106.76 17.65,158.76 -9.94,52 -30.5,93.99 -67.42,121.5 -36.92,27.52 -90.22,40.58 -123.25,42.12 -33.03,1.54 -45.83,-8.4 -52.06,-32.98 -6.22,-24.57 -5.91,-63.76 -17.87,-104.4 -11.97,-40.63 -36.22,-82.72 -72.28,-117.76 -36.05,-35.03 -83.89,-62.97 -174.83,-82.8 -90.95,-19.83 -224.97,-31.51 -304.9,-50.88 -79.94,-19.36 -105.75,-46.45 -115.88,-90.72 -10.14,-44.25 -4.59,-105.77 -3.18,-136.36l0.28 -7.13c-290.24,-17.35 -589.22,-143.9 -798.27,-275.64 -240.89,-151.79 -362.34,-310.47 -423.15,-390.02 -60.83,-79.56 -61.03,-79.97 -151.57,-127.81 -90.52,-47.87 -271.4,-143.16 -455.83,-210.42 -184.4,-67.27 -372.37,-106.52 -589.53,-143.22 -217.16,-36.68 -463.49,-70.76 -594.62,-88.91 -131.11,-18.14 -147.01,-20.34 -154.95,-21.43 -7.93,-1.1 -7.93,-1.1 32.76,-16.07 40.69,-14.95 122.08,-44.89 169.38,-62.29 47.31,-17.39 60.54,-22.27 25.03,-34.42 -35.51,-12.15 -119.76,-31.57 -152.39,-63.29 -32.63,-31.71 -13.64,-75.67 27.47,-96.64 41.1,-20.98 104.3,-18.95 164.37,-27.07 60.03,-8.12 116.96,-26.37 154.43,-39.3 37.48,-12.92 55.53,-20.55 26.13,-39.64 -29.38,-19.08 -106.22,-49.67 -74.78,-63.49 31.43,-13.85 171.09,-10.93 407.11,66.66zm3675.13 -495.24c69.52,-3.9 130.71,79.75 136.7,186.85 5.98,107.07 -45.49,197.07 -114.99,200.95 -69.49,3.88 -130.7,-79.77 -136.69,-186.88 -5.98,-107.08 45.49,-197.06 114.98,-200.93z"/>
  </g>
 </g>
</svg>
